<mxfile host="app.diagrams.net" modified="2024-01-08T11:05:39.248Z" agent="Mozilla/5.0 (Windows NT 10.0; Win64; x64) AppleWebKit/537.36 (KHTML, like Gecko) Chrome/120.0.0.0 Safari/537.36" etag="sLYhzcXBKM0zh3AwbQwM" version="22.1.17" type="github">
  <diagram id="C5RBs43oDa-KdzZeNtuy" name="Page-1">
    <mxGraphModel dx="673" dy="811" grid="1" gridSize="10" guides="1" tooltips="1" connect="1" arrows="1" fold="1" page="1" pageScale="1" pageWidth="827" pageHeight="1169" math="0" shadow="0">
      <root>
        <mxCell id="WIyWlLk6GJQsqaUBKTNV-0" />
        <mxCell id="WIyWlLk6GJQsqaUBKTNV-1" parent="WIyWlLk6GJQsqaUBKTNV-0" />
        <mxCell id="M1OVDfsIFHSyLvUfPkhg-4" style="edgeStyle=orthogonalEdgeStyle;rounded=0;orthogonalLoop=1;jettySize=auto;html=1;entryX=0.5;entryY=0;entryDx=0;entryDy=0;" edge="1" parent="WIyWlLk6GJQsqaUBKTNV-1" source="M1OVDfsIFHSyLvUfPkhg-0" target="M1OVDfsIFHSyLvUfPkhg-3">
          <mxGeometry relative="1" as="geometry" />
        </mxCell>
        <mxCell id="M1OVDfsIFHSyLvUfPkhg-7" style="edgeStyle=orthogonalEdgeStyle;rounded=0;orthogonalLoop=1;jettySize=auto;html=1;" edge="1" parent="WIyWlLk6GJQsqaUBKTNV-1" source="M1OVDfsIFHSyLvUfPkhg-0" target="M1OVDfsIFHSyLvUfPkhg-6">
          <mxGeometry relative="1" as="geometry" />
        </mxCell>
        <mxCell id="M1OVDfsIFHSyLvUfPkhg-0" value="로그인 페이지" style="rounded=0;whiteSpace=wrap;html=1;" vertex="1" parent="WIyWlLk6GJQsqaUBKTNV-1">
          <mxGeometry x="180" y="89" width="120" height="60" as="geometry" />
        </mxCell>
        <mxCell id="M1OVDfsIFHSyLvUfPkhg-15" style="edgeStyle=orthogonalEdgeStyle;rounded=0;orthogonalLoop=1;jettySize=auto;html=1;entryX=0.5;entryY=0;entryDx=0;entryDy=0;" edge="1" parent="WIyWlLk6GJQsqaUBKTNV-1" source="M1OVDfsIFHSyLvUfPkhg-3" target="M1OVDfsIFHSyLvUfPkhg-14">
          <mxGeometry relative="1" as="geometry" />
        </mxCell>
        <mxCell id="M1OVDfsIFHSyLvUfPkhg-3" value="로그인" style="rounded=0;whiteSpace=wrap;html=1;" vertex="1" parent="WIyWlLk6GJQsqaUBKTNV-1">
          <mxGeometry x="180" y="180" width="120" height="60" as="geometry" />
        </mxCell>
        <mxCell id="M1OVDfsIFHSyLvUfPkhg-9" style="edgeStyle=orthogonalEdgeStyle;rounded=0;orthogonalLoop=1;jettySize=auto;html=1;entryX=0.5;entryY=0;entryDx=0;entryDy=0;" edge="1" parent="WIyWlLk6GJQsqaUBKTNV-1" source="M1OVDfsIFHSyLvUfPkhg-5" target="M1OVDfsIFHSyLvUfPkhg-0">
          <mxGeometry relative="1" as="geometry">
            <Array as="points">
              <mxPoint x="580" y="69" />
              <mxPoint x="240" y="69" />
            </Array>
          </mxGeometry>
        </mxCell>
        <mxCell id="M1OVDfsIFHSyLvUfPkhg-10" value="Text" style="edgeLabel;html=1;align=center;verticalAlign=middle;resizable=0;points=[];" vertex="1" connectable="0" parent="M1OVDfsIFHSyLvUfPkhg-9">
          <mxGeometry x="0.1838" y="-4" relative="1" as="geometry">
            <mxPoint x="29" y="-5" as="offset" />
          </mxGeometry>
        </mxCell>
        <mxCell id="M1OVDfsIFHSyLvUfPkhg-11" value="Yes" style="edgeLabel;html=1;align=center;verticalAlign=middle;resizable=0;points=[];" vertex="1" connectable="0" parent="M1OVDfsIFHSyLvUfPkhg-9">
          <mxGeometry x="0.0162" y="-7" relative="1" as="geometry">
            <mxPoint as="offset" />
          </mxGeometry>
        </mxCell>
        <mxCell id="M1OVDfsIFHSyLvUfPkhg-12" style="edgeStyle=orthogonalEdgeStyle;rounded=0;orthogonalLoop=1;jettySize=auto;html=1;entryX=0.5;entryY=1;entryDx=0;entryDy=0;" edge="1" parent="WIyWlLk6GJQsqaUBKTNV-1" source="M1OVDfsIFHSyLvUfPkhg-5" target="M1OVDfsIFHSyLvUfPkhg-6">
          <mxGeometry relative="1" as="geometry">
            <Array as="points">
              <mxPoint x="580" y="180" />
              <mxPoint x="470" y="180" />
              <mxPoint x="470" y="179" />
              <mxPoint x="400" y="179" />
            </Array>
          </mxGeometry>
        </mxCell>
        <mxCell id="M1OVDfsIFHSyLvUfPkhg-13" value="No" style="edgeLabel;html=1;align=center;verticalAlign=middle;resizable=0;points=[];" vertex="1" connectable="0" parent="M1OVDfsIFHSyLvUfPkhg-12">
          <mxGeometry x="-0.0517" y="4" relative="1" as="geometry">
            <mxPoint x="-11" y="6" as="offset" />
          </mxGeometry>
        </mxCell>
        <mxCell id="M1OVDfsIFHSyLvUfPkhg-5" value="회원가입 하시겠습니까?" style="rhombus;whiteSpace=wrap;html=1;" vertex="1" parent="WIyWlLk6GJQsqaUBKTNV-1">
          <mxGeometry x="506" y="79" width="160" height="80" as="geometry" />
        </mxCell>
        <mxCell id="M1OVDfsIFHSyLvUfPkhg-8" style="edgeStyle=orthogonalEdgeStyle;rounded=0;orthogonalLoop=1;jettySize=auto;html=1;" edge="1" parent="WIyWlLk6GJQsqaUBKTNV-1" source="M1OVDfsIFHSyLvUfPkhg-6" target="M1OVDfsIFHSyLvUfPkhg-5">
          <mxGeometry relative="1" as="geometry" />
        </mxCell>
        <mxCell id="M1OVDfsIFHSyLvUfPkhg-6" value="회원가입" style="rounded=0;whiteSpace=wrap;html=1;" vertex="1" parent="WIyWlLk6GJQsqaUBKTNV-1">
          <mxGeometry x="340" y="89" width="120" height="60" as="geometry" />
        </mxCell>
        <mxCell id="M1OVDfsIFHSyLvUfPkhg-21" style="edgeStyle=orthogonalEdgeStyle;rounded=0;orthogonalLoop=1;jettySize=auto;html=1;" edge="1" parent="WIyWlLk6GJQsqaUBKTNV-1" source="M1OVDfsIFHSyLvUfPkhg-14" target="M1OVDfsIFHSyLvUfPkhg-20">
          <mxGeometry relative="1" as="geometry">
            <Array as="points">
              <mxPoint x="330" y="330" />
              <mxPoint x="330" y="270" />
            </Array>
          </mxGeometry>
        </mxCell>
        <mxCell id="M1OVDfsIFHSyLvUfPkhg-23" style="edgeStyle=orthogonalEdgeStyle;rounded=0;orthogonalLoop=1;jettySize=auto;html=1;entryX=0;entryY=0.5;entryDx=0;entryDy=0;" edge="1" parent="WIyWlLk6GJQsqaUBKTNV-1" source="M1OVDfsIFHSyLvUfPkhg-14" target="M1OVDfsIFHSyLvUfPkhg-22">
          <mxGeometry relative="1" as="geometry" />
        </mxCell>
        <mxCell id="M1OVDfsIFHSyLvUfPkhg-31" style="edgeStyle=orthogonalEdgeStyle;rounded=0;orthogonalLoop=1;jettySize=auto;html=1;entryX=1;entryY=0.5;entryDx=0;entryDy=0;dashed=1;" edge="1" parent="WIyWlLk6GJQsqaUBKTNV-1" source="M1OVDfsIFHSyLvUfPkhg-14" target="M1OVDfsIFHSyLvUfPkhg-29">
          <mxGeometry relative="1" as="geometry">
            <Array as="points">
              <mxPoint x="160" y="330" />
              <mxPoint x="160" y="380" />
            </Array>
          </mxGeometry>
        </mxCell>
        <mxCell id="M1OVDfsIFHSyLvUfPkhg-53" value="구현 안됨" style="edgeLabel;html=1;align=center;verticalAlign=middle;resizable=0;points=[];" vertex="1" connectable="0" parent="M1OVDfsIFHSyLvUfPkhg-31">
          <mxGeometry x="0.7744" y="-2" relative="1" as="geometry">
            <mxPoint x="-70" y="-38" as="offset" />
          </mxGeometry>
        </mxCell>
        <mxCell id="M1OVDfsIFHSyLvUfPkhg-32" style="edgeStyle=orthogonalEdgeStyle;rounded=0;orthogonalLoop=1;jettySize=auto;html=1;dashed=1;entryX=1;entryY=0.5;entryDx=0;entryDy=0;" edge="1" parent="WIyWlLk6GJQsqaUBKTNV-1" source="M1OVDfsIFHSyLvUfPkhg-14" target="M1OVDfsIFHSyLvUfPkhg-30">
          <mxGeometry relative="1" as="geometry">
            <Array as="points">
              <mxPoint x="160" y="330" />
              <mxPoint x="160" y="270" />
            </Array>
          </mxGeometry>
        </mxCell>
        <mxCell id="M1OVDfsIFHSyLvUfPkhg-52" value="구현 안됨" style="edgeLabel;html=1;align=center;verticalAlign=middle;resizable=0;points=[];" vertex="1" connectable="0" parent="M1OVDfsIFHSyLvUfPkhg-32">
          <mxGeometry x="-0.0305" y="1" relative="1" as="geometry">
            <mxPoint x="-79" y="-72" as="offset" />
          </mxGeometry>
        </mxCell>
        <mxCell id="M1OVDfsIFHSyLvUfPkhg-35" style="edgeStyle=orthogonalEdgeStyle;rounded=0;orthogonalLoop=1;jettySize=auto;html=1;" edge="1" parent="WIyWlLk6GJQsqaUBKTNV-1" source="M1OVDfsIFHSyLvUfPkhg-14" target="M1OVDfsIFHSyLvUfPkhg-33">
          <mxGeometry relative="1" as="geometry" />
        </mxCell>
        <mxCell id="M1OVDfsIFHSyLvUfPkhg-44" style="edgeStyle=orthogonalEdgeStyle;rounded=0;orthogonalLoop=1;jettySize=auto;html=1;entryX=1;entryY=0.5;entryDx=0;entryDy=0;dashed=1;" edge="1" parent="WIyWlLk6GJQsqaUBKTNV-1" source="M1OVDfsIFHSyLvUfPkhg-14" target="M1OVDfsIFHSyLvUfPkhg-43">
          <mxGeometry relative="1" as="geometry">
            <Array as="points">
              <mxPoint x="160" y="330" />
              <mxPoint x="160" y="480" />
            </Array>
          </mxGeometry>
        </mxCell>
        <mxCell id="M1OVDfsIFHSyLvUfPkhg-54" value="구현 안됨" style="edgeLabel;html=1;align=center;verticalAlign=middle;resizable=0;points=[];" vertex="1" connectable="0" parent="M1OVDfsIFHSyLvUfPkhg-44">
          <mxGeometry x="0.4632" y="4" relative="1" as="geometry">
            <mxPoint x="-84" y="-9" as="offset" />
          </mxGeometry>
        </mxCell>
        <mxCell id="M1OVDfsIFHSyLvUfPkhg-14" value="홈 페이지" style="rounded=0;whiteSpace=wrap;html=1;" vertex="1" parent="WIyWlLk6GJQsqaUBKTNV-1">
          <mxGeometry x="180" y="300" width="120" height="60" as="geometry" />
        </mxCell>
        <mxCell id="M1OVDfsIFHSyLvUfPkhg-19" style="edgeStyle=orthogonalEdgeStyle;rounded=0;orthogonalLoop=1;jettySize=auto;html=1;" edge="1" parent="WIyWlLk6GJQsqaUBKTNV-1" source="M1OVDfsIFHSyLvUfPkhg-16" target="M1OVDfsIFHSyLvUfPkhg-0">
          <mxGeometry relative="1" as="geometry" />
        </mxCell>
        <mxCell id="M1OVDfsIFHSyLvUfPkhg-16" value="서버 실행" style="ellipse;whiteSpace=wrap;html=1;aspect=fixed;" vertex="1" parent="WIyWlLk6GJQsqaUBKTNV-1">
          <mxGeometry x="30" y="79" width="80" height="80" as="geometry" />
        </mxCell>
        <mxCell id="M1OVDfsIFHSyLvUfPkhg-25" style="edgeStyle=orthogonalEdgeStyle;rounded=0;orthogonalLoop=1;jettySize=auto;html=1;" edge="1" parent="WIyWlLk6GJQsqaUBKTNV-1" source="M1OVDfsIFHSyLvUfPkhg-20" target="M1OVDfsIFHSyLvUfPkhg-24">
          <mxGeometry relative="1" as="geometry" />
        </mxCell>
        <mxCell id="M1OVDfsIFHSyLvUfPkhg-20" value="고객관리 페이지" style="rounded=0;whiteSpace=wrap;html=1;" vertex="1" parent="WIyWlLk6GJQsqaUBKTNV-1">
          <mxGeometry x="363" y="240" width="120" height="60" as="geometry" />
        </mxCell>
        <mxCell id="M1OVDfsIFHSyLvUfPkhg-28" style="edgeStyle=orthogonalEdgeStyle;rounded=0;orthogonalLoop=1;jettySize=auto;html=1;" edge="1" parent="WIyWlLk6GJQsqaUBKTNV-1" source="M1OVDfsIFHSyLvUfPkhg-22" target="M1OVDfsIFHSyLvUfPkhg-26">
          <mxGeometry relative="1" as="geometry" />
        </mxCell>
        <mxCell id="M1OVDfsIFHSyLvUfPkhg-22" value="출석부" style="rounded=0;whiteSpace=wrap;html=1;" vertex="1" parent="WIyWlLk6GJQsqaUBKTNV-1">
          <mxGeometry x="360" y="350" width="120" height="60" as="geometry" />
        </mxCell>
        <mxCell id="M1OVDfsIFHSyLvUfPkhg-24" value="유저 정보 페이지" style="rounded=0;whiteSpace=wrap;html=1;" vertex="1" parent="WIyWlLk6GJQsqaUBKTNV-1">
          <mxGeometry x="540" y="240" width="120" height="60" as="geometry" />
        </mxCell>
        <mxCell id="M1OVDfsIFHSyLvUfPkhg-26" value="출석부 서버 실행" style="rounded=0;whiteSpace=wrap;html=1;" vertex="1" parent="WIyWlLk6GJQsqaUBKTNV-1">
          <mxGeometry x="540" y="350" width="120" height="60" as="geometry" />
        </mxCell>
        <mxCell id="M1OVDfsIFHSyLvUfPkhg-29" value="매출 관리" style="rounded=0;whiteSpace=wrap;html=1;" vertex="1" parent="WIyWlLk6GJQsqaUBKTNV-1">
          <mxGeometry x="20" y="350" width="120" height="60" as="geometry" />
        </mxCell>
        <mxCell id="M1OVDfsIFHSyLvUfPkhg-30" value="매출 통계" style="rounded=0;whiteSpace=wrap;html=1;" vertex="1" parent="WIyWlLk6GJQsqaUBKTNV-1">
          <mxGeometry x="20" y="240" width="120" height="60" as="geometry" />
        </mxCell>
        <mxCell id="M1OVDfsIFHSyLvUfPkhg-38" style="edgeStyle=orthogonalEdgeStyle;rounded=0;orthogonalLoop=1;jettySize=auto;html=1;" edge="1" parent="WIyWlLk6GJQsqaUBKTNV-1" source="M1OVDfsIFHSyLvUfPkhg-33" target="M1OVDfsIFHSyLvUfPkhg-36">
          <mxGeometry relative="1" as="geometry" />
        </mxCell>
        <mxCell id="M1OVDfsIFHSyLvUfPkhg-33" value="회원 등록" style="rounded=0;whiteSpace=wrap;html=1;" vertex="1" parent="WIyWlLk6GJQsqaUBKTNV-1">
          <mxGeometry x="180" y="450" width="120" height="60" as="geometry" />
        </mxCell>
        <mxCell id="M1OVDfsIFHSyLvUfPkhg-39" style="edgeStyle=orthogonalEdgeStyle;rounded=0;orthogonalLoop=1;jettySize=auto;html=1;" edge="1" parent="WIyWlLk6GJQsqaUBKTNV-1" source="M1OVDfsIFHSyLvUfPkhg-36" target="M1OVDfsIFHSyLvUfPkhg-37">
          <mxGeometry relative="1" as="geometry" />
        </mxCell>
        <mxCell id="M1OVDfsIFHSyLvUfPkhg-42" value="Yes" style="edgeLabel;html=1;align=center;verticalAlign=middle;resizable=0;points=[];" vertex="1" connectable="0" parent="M1OVDfsIFHSyLvUfPkhg-39">
          <mxGeometry x="0.1622" y="1" relative="1" as="geometry">
            <mxPoint y="11" as="offset" />
          </mxGeometry>
        </mxCell>
        <mxCell id="M1OVDfsIFHSyLvUfPkhg-40" style="edgeStyle=orthogonalEdgeStyle;rounded=0;orthogonalLoop=1;jettySize=auto;html=1;entryX=0.5;entryY=1;entryDx=0;entryDy=0;" edge="1" parent="WIyWlLk6GJQsqaUBKTNV-1" source="M1OVDfsIFHSyLvUfPkhg-36" target="M1OVDfsIFHSyLvUfPkhg-33">
          <mxGeometry relative="1" as="geometry">
            <Array as="points">
              <mxPoint x="423" y="540" />
              <mxPoint x="240" y="540" />
            </Array>
          </mxGeometry>
        </mxCell>
        <mxCell id="M1OVDfsIFHSyLvUfPkhg-41" value="No" style="edgeLabel;html=1;align=center;verticalAlign=middle;resizable=0;points=[];" vertex="1" connectable="0" parent="M1OVDfsIFHSyLvUfPkhg-40">
          <mxGeometry x="0.014" y="-1" relative="1" as="geometry">
            <mxPoint y="11" as="offset" />
          </mxGeometry>
        </mxCell>
        <mxCell id="M1OVDfsIFHSyLvUfPkhg-36" value="유저 등록 하시겠습니까?" style="rhombus;whiteSpace=wrap;html=1;" vertex="1" parent="WIyWlLk6GJQsqaUBKTNV-1">
          <mxGeometry x="340" y="440" width="166" height="80" as="geometry" />
        </mxCell>
        <mxCell id="M1OVDfsIFHSyLvUfPkhg-37" value="회원권 등록" style="rounded=0;whiteSpace=wrap;html=1;" vertex="1" parent="WIyWlLk6GJQsqaUBKTNV-1">
          <mxGeometry x="540" y="450" width="120" height="60" as="geometry" />
        </mxCell>
        <mxCell id="M1OVDfsIFHSyLvUfPkhg-43" value="Manager 삭제&lt;br&gt;회원 삭제" style="rounded=0;whiteSpace=wrap;html=1;" vertex="1" parent="WIyWlLk6GJQsqaUBKTNV-1">
          <mxGeometry x="20" y="450" width="120" height="60" as="geometry" />
        </mxCell>
        <mxCell id="M1OVDfsIFHSyLvUfPkhg-47" style="edgeStyle=orthogonalEdgeStyle;rounded=0;orthogonalLoop=1;jettySize=auto;html=1;" edge="1" parent="WIyWlLk6GJQsqaUBKTNV-1" source="M1OVDfsIFHSyLvUfPkhg-45" target="M1OVDfsIFHSyLvUfPkhg-46">
          <mxGeometry relative="1" as="geometry" />
        </mxCell>
        <mxCell id="M1OVDfsIFHSyLvUfPkhg-45" value="출석부 클라이언트 실행" style="ellipse;whiteSpace=wrap;html=1;aspect=fixed;" vertex="1" parent="WIyWlLk6GJQsqaUBKTNV-1">
          <mxGeometry x="20" y="600" width="140" height="140" as="geometry" />
        </mxCell>
        <mxCell id="M1OVDfsIFHSyLvUfPkhg-49" style="edgeStyle=orthogonalEdgeStyle;rounded=0;orthogonalLoop=1;jettySize=auto;html=1;" edge="1" parent="WIyWlLk6GJQsqaUBKTNV-1" source="M1OVDfsIFHSyLvUfPkhg-46" target="M1OVDfsIFHSyLvUfPkhg-48">
          <mxGeometry relative="1" as="geometry" />
        </mxCell>
        <mxCell id="M1OVDfsIFHSyLvUfPkhg-46" value="출석부 서버와 연동" style="rounded=0;whiteSpace=wrap;html=1;" vertex="1" parent="WIyWlLk6GJQsqaUBKTNV-1">
          <mxGeometry x="243" y="640" width="120" height="60" as="geometry" />
        </mxCell>
        <mxCell id="M1OVDfsIFHSyLvUfPkhg-50" style="edgeStyle=orthogonalEdgeStyle;rounded=0;orthogonalLoop=1;jettySize=auto;html=1;entryX=1;entryY=0.5;entryDx=0;entryDy=0;dashed=1;" edge="1" parent="WIyWlLk6GJQsqaUBKTNV-1" source="M1OVDfsIFHSyLvUfPkhg-48" target="M1OVDfsIFHSyLvUfPkhg-26">
          <mxGeometry relative="1" as="geometry">
            <Array as="points">
              <mxPoint x="680" y="670" />
              <mxPoint x="680" y="380" />
            </Array>
          </mxGeometry>
        </mxCell>
        <mxCell id="M1OVDfsIFHSyLvUfPkhg-51" value="비동기" style="edgeLabel;html=1;align=center;verticalAlign=middle;resizable=0;points=[];" vertex="1" connectable="0" parent="M1OVDfsIFHSyLvUfPkhg-50">
          <mxGeometry x="-0.0398" y="-1" relative="1" as="geometry">
            <mxPoint x="-21" y="-28" as="offset" />
          </mxGeometry>
        </mxCell>
        <mxCell id="M1OVDfsIFHSyLvUfPkhg-48" value="출석하시겠습니까?" style="rhombus;whiteSpace=wrap;html=1;" vertex="1" parent="WIyWlLk6GJQsqaUBKTNV-1">
          <mxGeometry x="420" y="630" width="150" height="80" as="geometry" />
        </mxCell>
      </root>
    </mxGraphModel>
  </diagram>
</mxfile>
